<?xml version="1.0" encoding="UTF-8" standalone="no"?>
<svg width="48" height="48" viewBox="0 0 48 48" xmlns="http://www.w3.org/2000/svg">
  <!-- Generated by png2svg_pro.py - High Fidelity Vectorization -->
  <path d="M2.000,24.000 L2.000,2.000 L12.500,2.000 L23.000,2.000 L23.000,9.500 C23.000,15.500 22.700,17.000 21.500,17.000 C20.333,17.000 20.000,15.667 20.000,11.000 L20.000,5.000 L12.500,5.000 L5.000,5.000 L5.000,24.000 L5.000,43.000 L12.500,43.000 L20.000,43.000 L20.000,37.000 C20.000,32.333 20.333,31.000 21.500,31.000 C22.700,31.000 23.000,32.500 23.000,38.500 L23.000,46.000 L12.500,46.000 L2.000,46.000 L2.000,24.000 Z M25.000,38.500 C25.000,32.500 25.300,31.000 26.500,31.000 C27.667,31.000 28.000,32.333 28.000,37.000 L28.000,43.000 L35.500,43.000 L43.000,43.000 L43.000,24.000 L43.000,5.000 L35.500,5.000 L28.000,5.000 L28.000,11.000 C28.000,15.667 27.667,17.000 26.500,17.000 C25.300,17.000 25.000,15.500 25.000,9.500 L25.000,2.000 L35.500,2.000 L46.000,2.000 L46.000,24.000 L46.000,46.000 L35.500,46.000 L25.000,46.000 L25.000,38.500 Z M16.512,30.019 C16.123,29.389 16.593,28.002 17.557,26.937 C19.271,25.043 19.186,25.000 13.714,25.000 C10.636,25.000 7.840,24.550 7.500,24.000 C7.113,23.374 9.208,23.000 13.096,23.000 C19.179,23.000 19.273,22.959 17.557,21.063 C16.593,19.998 16.126,18.605 16.519,17.969 C17.328,16.661 23.000,22.267 23.000,24.375 C23.000,26.413 17.331,31.344 16.512,30.019 Z M27.693,28.202 C24.269,24.628 24.305,23.040 27.890,19.605 C31.152,16.480 33.419,17.775 30.443,21.063 C28.727,22.959 28.820,23.000 34.845,23.000 C38.282,23.000 41.000,23.442 41.000,24.000 C41.000,24.558 38.282,25.000 34.845,25.000 C28.729,25.000 28.702,25.013 30.521,27.024 C33.567,30.389 30.867,31.514 27.693,28.202 Z" fill="currentColor" fill-rule="evenodd" />
</svg>